<?xml version="1.0" encoding="UTF-8"?>
<svg xmlns="http://www.w3.org/2000/svg" xmlns:xlink="http://www.w3.org/1999/xlink" width="375pt" height="374.999991pt" viewBox="0 0 375 374.999991" version="1.2">
<defs>
<clipPath id="clip1">
  <path d="M 112.5 112.5 L 262.5 112.5 L 262.5 262.5 L 112.5 262.5 Z M 112.5 112.5 "/>
</clipPath>
</defs>
<g id="surface1">
<g clip-path="url(#clip1)" clip-rule="nonzero">
<path style=" stroke:none;fill-rule:nonzero;fill:rgb(13.328552%,15.689087%,19.219971%);fill-opacity:1;" d="M 250 112.5 L 125 112.5 C 118.109375 112.5 112.5 118.109375 112.5 125 L 112.5 217.5 C 112.5 224.390625 118.109375 230 125 230 L 166.152344 230 L 158.375 247.5 L 132.5 247.5 C 131.117188 247.5 130 248.621094 130 250 C 130 256.890625 135.609375 262.5 142.5 262.5 L 232.5 262.5 C 239.390625 262.5 245 256.890625 245 250 C 245 248.621094 243.882812 247.5 242.5 247.5 L 216.625 247.5 L 208.847656 230 L 250 230 C 256.890625 230 262.5 224.390625 262.5 217.5 L 262.5 125 C 262.5 118.109375 256.890625 112.5 250 112.5 Z M 125 117.5 L 250 117.5 C 254.136719 117.5 257.5 120.863281 257.5 125 L 257.5 207.5 L 117.5 207.5 L 117.5 125 C 117.5 120.863281 120.863281 117.5 125 117.5 Z M 232.5 257.5 L 142.5 257.5 C 139.238281 257.5 136.460938 255.410156 135.425781 252.5 L 239.574219 252.5 C 238.539062 255.410156 235.761719 257.5 232.5 257.5 Z M 211.152344 247.5 L 163.847656 247.5 L 171.621094 230 L 203.375 230 Z M 250 225 L 125 225 C 120.863281 225 117.5 221.636719 117.5 217.5 L 117.5 212.5 L 257.5 212.5 L 257.5 217.5 C 257.5 221.636719 254.136719 225 250 225 Z M 250 225 "/>
</g>
<path style=" stroke:none;fill-rule:nonzero;fill:rgb(13.328552%,15.689087%,19.219971%);fill-opacity:1;" d="M 130.734375 139.265625 L 134.265625 135.734375 L 128.535156 130 L 134.265625 124.265625 L 130.734375 120.734375 L 123.234375 128.234375 C 122.253906 129.210938 122.253906 130.789062 123.234375 131.765625 Z M 130.734375 139.265625 "/>
<path style=" stroke:none;fill-rule:nonzero;fill:rgb(13.328552%,15.689087%,19.219971%);fill-opacity:1;" d="M 154.265625 139.265625 L 161.765625 131.765625 C 162.746094 130.789062 162.746094 129.210938 161.765625 128.234375 L 154.265625 120.734375 L 150.734375 124.265625 L 156.464844 130 L 150.734375 135.734375 Z M 154.265625 139.265625 "/>
<path style=" stroke:none;fill-rule:nonzero;fill:rgb(13.328552%,15.689087%,19.219971%);fill-opacity:1;" d="M 184.265625 186.765625 L 191.765625 179.265625 C 192.746094 178.289062 192.746094 176.710938 191.765625 175.734375 L 184.265625 168.234375 L 180.734375 171.765625 L 186.464844 177.5 L 180.734375 183.234375 Z M 184.265625 186.765625 "/>
<path style=" stroke:none;fill-rule:nonzero;fill:rgb(13.328552%,15.689087%,19.219971%);fill-opacity:1;" d="M 208.964844 192.5 L 203.234375 198.234375 L 206.765625 201.765625 L 214.265625 194.265625 C 215.246094 193.289062 215.246094 191.710938 214.265625 190.734375 L 206.765625 183.234375 L 203.234375 186.765625 Z M 208.964844 192.5 "/>
<path style=" stroke:none;fill-rule:nonzero;fill:rgb(13.328552%,15.689087%,19.219971%);fill-opacity:1;" d="M 137.5 135 L 147.5 135 L 147.5 140 L 137.5 140 Z M 137.5 135 "/>
<path style=" stroke:none;fill-rule:nonzero;fill:rgb(13.328552%,15.689087%,19.219971%);fill-opacity:1;" d="M 137.5 147.5 L 147.5 147.5 L 147.5 152.5 L 137.5 152.5 Z M 137.5 147.5 "/>
<path style=" stroke:none;fill-rule:nonzero;fill:rgb(13.328552%,15.689087%,19.219971%);fill-opacity:1;" d="M 152.5 147.5 L 205 147.5 L 205 152.5 L 152.5 152.5 Z M 152.5 147.5 "/>
<path style=" stroke:none;fill-rule:nonzero;fill:rgb(13.328552%,15.689087%,19.219971%);fill-opacity:1;" d="M 137.5 160 L 147.5 160 L 147.5 165 L 137.5 165 Z M 137.5 160 "/>
<path style=" stroke:none;fill-rule:nonzero;fill:rgb(13.328552%,15.689087%,19.219971%);fill-opacity:1;" d="M 152.5 160 L 195 160 L 195 165 L 152.5 165 Z M 152.5 160 "/>
<path style=" stroke:none;fill-rule:nonzero;fill:rgb(13.328552%,15.689087%,19.219971%);fill-opacity:1;" d="M 142.5 180 L 152.5 180 L 152.5 185 L 142.5 185 Z M 142.5 180 "/>
<path style=" stroke:none;fill-rule:nonzero;fill:rgb(13.328552%,15.689087%,19.219971%);fill-opacity:1;" d="M 157.5 180 L 177.5 180 L 177.5 185 L 157.5 185 Z M 157.5 180 "/>
<path style=" stroke:none;fill-rule:nonzero;fill:rgb(13.328552%,15.689087%,19.219971%);fill-opacity:1;" d="M 142.5 192.5 L 152.5 192.5 L 152.5 197.5 L 142.5 197.5 Z M 142.5 192.5 "/>
<path style=" stroke:none;fill-rule:nonzero;fill:rgb(13.328552%,15.689087%,19.219971%);fill-opacity:1;" d="M 157.5 192.5 L 200 192.5 L 200 197.5 L 157.5 197.5 Z M 157.5 192.5 "/>
<path style=" stroke:none;fill-rule:nonzero;fill:rgb(13.328552%,15.689087%,19.219971%);fill-opacity:1;" d="M 122.5 142.5 L 127.5 142.5 L 127.5 202.5 L 122.5 202.5 Z M 122.5 142.5 "/>
<path style=" stroke:none;fill-rule:nonzero;fill:rgb(13.328552%,15.689087%,19.219971%);fill-opacity:1;" d="M 132.5 175 L 137.5 175 L 137.5 202.5 L 132.5 202.5 Z M 132.5 175 "/>
<path style=" stroke:none;fill-rule:nonzero;fill:rgb(13.328552%,15.689087%,19.219971%);fill-opacity:1;" d="M 212.5 157.5 L 250 157.5 C 251.382812 157.5 252.5 156.378906 252.5 155 L 252.5 125 C 252.5 123.621094 251.382812 122.5 250 122.5 L 212.5 122.5 C 211.117188 122.5 210 123.621094 210 125 L 210 155 C 210 156.378906 211.117188 157.5 212.5 157.5 Z M 215 127.5 L 247.5 127.5 L 247.5 152.5 L 215 152.5 Z M 215 127.5 "/>
<path style=" stroke:none;fill-rule:nonzero;fill:rgb(13.328552%,15.689087%,19.219971%);fill-opacity:1;" d="M 250 162.5 L 222.5 162.5 C 221.117188 162.5 220 163.621094 220 165 L 220 192.5 C 220 193.878906 221.117188 195 222.5 195 L 250 195 C 251.382812 195 252.5 193.878906 252.5 192.5 L 252.5 165 C 252.5 163.621094 251.382812 162.5 250 162.5 Z M 247.5 190 L 225 190 L 225 167.5 L 247.5 167.5 Z M 247.5 190 "/>
</g>
</svg>
