<?xml version="1.0" encoding="UTF-8"?>
<svg xmlns="http://www.w3.org/2000/svg" xmlns:xlink="http://www.w3.org/1999/xlink" width="375pt" height="374.999991pt" viewBox="0 0 375 374.999991" version="1.2">
<defs>
<clipPath id="clip1">
  <path d="M 113 113 L 262 113 L 262 262.5 L 113 262.5 Z M 113 113 "/>
</clipPath>
</defs>
<g id="surface1">
<g clip-path="url(#clip1)" clip-rule="nonzero">
<path style=" stroke:none;fill-rule:nonzero;fill:rgb(13.328552%,15.689087%,19.219971%);fill-opacity:1;" d="M 231.167969 113.464844 C 227.777344 113.464844 224.574219 114.796875 222.167969 117.203125 L 213.171875 126.195312 C 211.183594 124.214844 207.949219 124.214844 205.972656 126.195312 L 191.566406 140.601562 C 189.578125 142.589844 189.578125 145.824219 191.566406 147.804688 L 191.6875 147.933594 L 187.746094 151.863281 L 151.617188 115.730469 C 148.71875 112.835938 143.695312 112.835938 140.800781 115.730469 L 115.605469 140.929688 C 112.621094 143.914062 112.621094 148.757812 115.605469 151.742188 L 151.707031 187.84375 L 122.738281 216.78125 C 121.453125 218.066406 120.667969 219.765625 120.519531 221.578125 L 118.796875 242.957031 L 117.007812 255.492188 C 116.886719 256.285156 117.15625 257.082031 117.734375 257.660156 C 118.210938 258.136719 118.855469 258.394531 119.523438 258.394531 C 119.652344 258.394531 119.773438 258.394531 119.890625 258.375 L 132.4375 256.585938 L 153.921875 255.003906 C 155.753906 254.863281 157.464844 254.089844 158.757812 252.785156 L 187.726562 223.875 L 223.648438 259.789062 C 225.140625 261.28125 227.089844 262.015625 229.050781 262.015625 C 231.011719 262.015625 232.960938 261.28125 234.453125 259.789062 L 259.660156 234.578125 C 262.644531 231.59375 262.644531 226.75 259.660156 223.765625 L 223.769531 187.875 L 227.707031 183.933594 C 228.652344 184.820312 229.875 185.316406 231.167969 185.316406 C 232.53125 185.316406 233.816406 184.78125 234.78125 183.816406 L 249.1875 169.410156 C 251.175781 167.429688 251.175781 164.199219 249.1875 162.207031 L 258.1875 153.214844 C 260.597656 150.808594 261.917969 147.613281 261.917969 144.210938 C 261.917969 140.800781 260.597656 137.605469 258.1875 135.199219 L 240.183594 117.203125 C 237.773438 114.796875 234.582031 113.464844 231.167969 113.464844 Z M 146.203125 118.597656 C 146.871094 118.597656 147.527344 118.84375 148.003906 119.332031 L 149.816406 121.121094 L 144.414062 126.523438 C 143.410156 127.519531 143.410156 129.132812 144.414062 130.125 C 144.902344 130.625 145.558594 130.871094 146.203125 130.871094 C 146.859375 130.871094 147.515625 130.625 148.003906 130.125 L 153.40625 124.722656 L 158.816406 130.125 L 149.816406 139.128906 C 148.808594 140.132812 148.808594 141.734375 149.816406 142.738281 C 150.300781 143.226562 150.957031 143.476562 151.617188 143.476562 C 152.261719 143.476562 152.917969 143.226562 153.40625 142.738281 L 162.410156 133.726562 L 167.820312 139.128906 L 162.417969 144.539062 C 161.425781 145.535156 161.425781 147.136719 162.417969 148.132812 C 162.917969 148.628906 163.5625 148.878906 164.21875 148.878906 C 164.875 148.878906 165.523438 148.628906 166.019531 148.132812 L 171.421875 142.738281 L 176.824219 148.132812 L 167.820312 157.144531 C 166.824219 158.140625 166.824219 159.742188 167.820312 160.734375 C 168.316406 161.234375 168.964844 161.492188 169.621094 161.492188 C 170.277344 161.492188 170.925781 161.234375 171.421875 160.734375 L 180.425781 151.742188 L 184.144531 155.453125 L 155.316406 184.253906 L 119.203125 148.132812 C 118.210938 147.148438 118.210938 145.523438 119.203125 144.539062 L 144.414062 119.332031 C 144.890625 118.84375 145.546875 118.597656 146.203125 118.597656 Z M 231.167969 118.636719 C 233.148438 118.636719 235.140625 119.351562 236.582031 120.792969 L 254.585938 138.800781 C 256.03125 140.242188 256.824219 142.164062 256.824219 144.203125 C 256.824219 146.242188 256.03125 148.160156 254.585938 149.605469 L 245.585938 158.617188 L 216.765625 129.796875 L 225.777344 120.792969 C 227.21875 119.351562 229.199219 118.625 231.167969 118.636719 Z M 209.5625 129.796875 L 227.578125 147.804688 L 243.785156 164.007812 L 245.585938 165.820312 L 241.984375 169.410156 C 240.988281 168.414062 239.375 168.414062 238.382812 169.410156 L 234.78125 173.023438 C 233.785156 174.015625 233.785156 175.617188 234.78125 176.613281 L 231.191406 180.222656 L 231.179688 180.222656 L 195.15625 144.203125 L 198.757812 140.601562 C 199.257812 141.097656 199.902344 141.347656 200.558594 141.347656 C 201.214844 141.347656 201.863281 141.097656 202.359375 140.601562 L 205.972656 137 C 206.964844 136.003906 206.964844 134.394531 205.972656 133.398438 Z M 213.171875 141.65625 C 212.515625 141.65625 211.871094 141.90625 211.375 142.402344 L 207.761719 146.003906 C 206.765625 146.996094 206.765625 148.609375 207.761719 149.605469 C 208.257812 150.101562 208.917969 150.351562 209.5625 150.351562 C 210.21875 150.351562 210.875 150.101562 211.375 149.605469 L 214.964844 146.003906 C 215.96875 145.007812 215.96875 143.398438 214.964844 142.402344 C 214.46875 141.90625 213.820312 141.65625 213.171875 141.65625 Z M 222.167969 150.667969 C 221.519531 150.667969 220.875 150.90625 220.375 151.414062 L 216.765625 155.003906 C 215.78125 156.011719 215.78125 157.621094 216.765625 158.617188 C 217.261719 159.105469 217.917969 159.351562 218.574219 159.351562 C 219.222656 159.351562 219.867188 159.105469 220.375 158.617188 L 223.96875 155.003906 C 224.960938 154.011719 224.960938 152.398438 223.96875 151.414062 C 223.46875 150.90625 222.824219 150.667969 222.167969 150.667969 Z M 195.296875 151.535156 L 224.105469 180.351562 L 157.136719 247.214844 L 154.710938 235.078125 L 196.957031 192.816406 C 197.953125 191.824219 197.953125 190.222656 196.957031 189.226562 C 195.964844 188.222656 194.363281 188.222656 193.355469 189.226562 L 151.097656 231.484375 L 145.097656 230.28125 L 143.894531 224.273438 L 178.953125 189.226562 C 179.949219 188.222656 179.949219 186.621094 178.953125 185.617188 C 177.957031 184.621094 176.347656 184.621094 175.351562 185.617188 L 140.304688 220.671875 L 128.425781 218.304688 Z M 231.179688 159.660156 C 230.53125 159.660156 229.875 159.910156 229.378906 160.417969 L 225.777344 164.007812 C 224.78125 165.011719 224.78125 166.613281 225.777344 167.621094 C 226.273438 168.105469 226.921875 168.367188 227.578125 168.367188 C 228.234375 168.367188 228.882812 168.105469 229.378906 167.621094 L 232.980469 164.007812 C 233.976562 163.015625 233.976562 161.402344 232.980469 160.417969 C 232.484375 159.910156 231.828125 159.660156 231.179688 159.660156 Z M 191.558594 170.476562 C 190.898438 170.476562 190.253906 170.714844 189.765625 171.210938 L 182.5625 178.421875 C 181.558594 179.417969 181.558594 181.019531 182.5625 182.023438 C 183.050781 182.511719 183.707031 182.769531 184.363281 182.769531 C 185.011719 182.769531 185.667969 182.511719 186.15625 182.023438 L 193.355469 174.820312 C 194.363281 173.816406 194.363281 172.214844 193.355469 171.210938 C 192.859375 170.714844 192.214844 170.476562 191.558594 170.476562 Z M 220.167969 191.484375 L 221.847656 193.15625 L 216.4375 198.558594 C 215.441406 199.554688 215.441406 201.164062 216.4375 202.160156 C 216.933594 202.65625 217.589844 202.90625 218.238281 202.90625 C 218.894531 202.90625 219.550781 202.65625 220.046875 202.160156 L 225.441406 196.757812 L 230.851562 202.160156 L 221.847656 211.164062 C 220.84375 212.167969 220.84375 213.769531 221.847656 214.773438 C 222.335938 215.261719 222.992188 215.519531 223.640625 215.519531 C 224.296875 215.519531 224.953125 215.261719 225.441406 214.773438 L 234.453125 205.769531 L 239.855469 211.164062 L 234.453125 216.5625 C 233.449219 217.570312 233.449219 219.171875 234.453125 220.175781 C 234.941406 220.664062 235.597656 220.910156 236.253906 220.910156 C 236.898438 220.910156 237.554688 220.664062 238.042969 220.175781 L 243.457031 214.773438 L 248.855469 220.175781 L 239.84375 229.179688 C 238.847656 230.171875 238.847656 231.773438 239.84375 232.769531 C 240.34375 233.265625 241 233.515625 241.65625 233.515625 C 242.300781 233.515625 242.957031 233.265625 243.457031 232.769531 L 252.449219 223.765625 L 256.058594 227.378906 C 257.042969 228.363281 257.042969 229.972656 256.058594 230.96875 L 230.839844 256.1875 C 229.886719 257.140625 228.207031 257.140625 227.25 256.1875 L 191.328125 220.265625 Z M 125.511719 222.910156 L 138.972656 225.597656 L 140.433594 232.949219 C 140.644531 233.953125 141.429688 234.738281 142.433594 234.9375 L 149.773438 236.410156 L 152.492188 250 L 133.113281 251.421875 L 123.960938 242.28125 Z M 125.511719 222.910156 "/>
</g>
</g>
</svg>
