<?xml version="1.0" encoding="UTF-8"?>
<svg xmlns="http://www.w3.org/2000/svg" xmlns:xlink="http://www.w3.org/1999/xlink" width="375pt" height="374.999991pt" viewBox="0 0 375 374.999991" version="1.2">
<defs>
<clipPath id="clip1">
  <path d="M 112.5 112.5 L 262.5 112.5 L 262.5 262.5 L 112.5 262.5 Z M 112.5 112.5 "/>
</clipPath>
</defs>
<g id="surface1">
<g clip-path="url(#clip1)" clip-rule="nonzero">
<path style=" stroke:none;fill-rule:nonzero;fill:rgb(13.328552%,15.689087%,19.219971%);fill-opacity:1;" d="M 255.363281 193.632812 L 247.984375 201.015625 L 236.890625 189.917969 L 244.269531 182.539062 C 245.753906 181.054688 247.71875 180.242188 249.816406 180.242188 C 254.144531 180.242188 257.660156 183.757812 257.660156 188.085938 C 257.660156 190.15625 256.828125 192.167969 255.363281 193.632812 Z M 228.628906 189.917969 L 194.757812 189.917969 L 194.757812 175.402344 L 228.628906 175.402344 Z M 197.175781 237.304688 L 193.339844 233.46875 L 233.46875 193.339844 L 237.304688 197.175781 Z M 204.433594 244.5625 L 200.597656 240.726562 L 240.726562 200.597656 L 244.5625 204.433594 Z M 191.628906 238.597656 L 199.304688 246.273438 L 190.355469 247.550781 Z M 238.304688 255.242188 C 238.304688 256.574219 237.21875 257.660156 235.886719 257.660156 L 129.433594 257.660156 C 128.101562 257.660156 127.015625 256.574219 127.015625 255.242188 L 127.015625 194.757812 L 172.984375 194.757812 C 176.992188 194.757812 180.242188 191.507812 180.242188 187.5 L 180.242188 148.789062 C 180.242188 144.785156 176.992188 141.53125 172.984375 141.53125 L 127.015625 141.53125 L 127.015625 136.695312 L 238.304688 136.695312 L 238.304688 181.660156 L 233.46875 186.5 L 233.46875 170.566406 L 189.917969 170.566406 L 189.917969 194.757812 L 225.207031 194.757812 L 187.640625 232.324219 L 184.644531 253.257812 L 205.578125 250.261719 L 238.304688 217.535156 Z M 117.339844 187.5 L 117.339844 148.789062 C 117.339844 147.457031 118.425781 146.371094 119.757812 146.371094 L 172.984375 146.371094 C 174.316406 146.371094 175.402344 147.457031 175.402344 148.789062 L 175.402344 187.5 C 175.402344 188.832031 174.316406 189.917969 172.984375 189.917969 L 119.757812 189.917969 C 118.425781 189.917969 117.339844 188.832031 117.339844 187.5 Z M 129.433594 117.339844 L 235.886719 117.339844 C 237.21875 117.339844 238.304688 118.425781 238.304688 119.757812 L 238.304688 131.855469 L 127.015625 131.855469 L 127.015625 119.757812 C 127.015625 118.425781 128.101562 117.339844 129.433594 117.339844 Z M 262.5 188.085938 C 262.5 181.09375 256.8125 175.402344 249.816406 175.402344 C 247.417969 175.402344 245.128906 176.09375 243.144531 177.332031 L 243.144531 119.757812 C 243.144531 115.75 239.894531 112.5 235.886719 112.5 L 129.433594 112.5 C 125.429688 112.5 122.175781 115.75 122.175781 119.757812 L 122.175781 141.53125 L 119.757812 141.53125 C 115.75 141.53125 112.5 144.785156 112.5 148.789062 L 112.5 187.5 C 112.5 191.507812 115.75 194.757812 119.757812 194.757812 L 122.175781 194.757812 L 122.175781 255.242188 C 122.175781 259.25 125.429688 262.5 129.433594 262.5 L 235.886719 262.5 C 239.894531 262.5 243.144531 259.25 243.144531 255.242188 L 243.144531 212.695312 L 258.785156 197.054688 C 261.1875 194.664062 262.5 191.480469 262.5 188.085938 "/>
</g>
<path style=" stroke:none;fill-rule:nonzero;fill:rgb(13.328552%,15.689087%,19.219971%);fill-opacity:1;" d="M 143.953125 122.175781 L 139.113281 122.175781 L 139.113281 127.015625 L 143.953125 127.015625 L 143.953125 122.175781 "/>
<path style=" stroke:none;fill-rule:nonzero;fill:rgb(13.328552%,15.689087%,19.219971%);fill-opacity:1;" d="M 134.273438 122.175781 L 129.433594 122.175781 L 129.433594 127.015625 L 134.273438 127.015625 L 134.273438 122.175781 "/>
<path style=" stroke:none;fill-rule:nonzero;fill:rgb(13.328552%,15.689087%,19.219971%);fill-opacity:1;" d="M 153.628906 122.175781 L 148.789062 122.175781 L 148.789062 127.015625 L 153.628906 127.015625 L 153.628906 122.175781 "/>
<path style=" stroke:none;fill-rule:nonzero;fill:rgb(13.328552%,15.689087%,19.219971%);fill-opacity:1;" d="M 139.234375 181.894531 L 143.828125 183.425781 L 153.507812 154.394531 L 148.914062 152.863281 L 139.234375 181.894531 "/>
<path style=" stroke:none;fill-rule:nonzero;fill:rgb(13.328552%,15.689087%,19.219971%);fill-opacity:1;" d="M 156.757812 160.179688 L 164.722656 168.144531 L 156.757812 176.113281 L 160.179688 179.53125 L 171.566406 168.144531 L 160.179688 156.757812 L 156.757812 160.179688 "/>
<path style=" stroke:none;fill-rule:nonzero;fill:rgb(13.328552%,15.689087%,19.219971%);fill-opacity:1;" d="M 132.5625 156.757812 L 121.175781 168.144531 L 132.5625 179.53125 L 135.984375 176.113281 L 128.019531 168.144531 L 135.984375 160.179688 L 132.5625 156.757812 "/>
<path style=" stroke:none;fill-rule:nonzero;fill:rgb(13.328552%,15.689087%,19.219971%);fill-opacity:1;" d="M 228.628906 160.886719 L 194.757812 160.886719 L 194.757812 146.371094 L 228.628906 146.371094 Z M 233.46875 141.53125 L 189.917969 141.53125 L 189.917969 165.726562 L 233.46875 165.726562 L 233.46875 141.53125 "/>
<path style=" stroke:none;fill-rule:nonzero;fill:rgb(13.328552%,15.689087%,19.219971%);fill-opacity:1;" d="M 131.855469 252.824219 L 170.566406 252.824219 L 170.566406 247.984375 L 131.855469 247.984375 L 131.855469 252.824219 "/>
<path style=" stroke:none;fill-rule:nonzero;fill:rgb(13.328552%,15.689087%,19.219971%);fill-opacity:1;" d="M 131.855469 243.144531 L 180.242188 243.144531 L 180.242188 238.304688 L 131.855469 238.304688 L 131.855469 243.144531 "/>
<path style=" stroke:none;fill-rule:nonzero;fill:rgb(13.328552%,15.689087%,19.219971%);fill-opacity:1;" d="M 136.695312 233.46875 L 141.53125 233.46875 L 141.53125 228.628906 L 146.371094 228.628906 L 146.371094 223.789062 L 141.53125 223.789062 L 141.53125 199.597656 L 136.695312 199.597656 L 136.695312 223.789062 L 131.855469 223.789062 L 131.855469 228.628906 L 136.695312 228.628906 L 136.695312 233.46875 "/>
<path style=" stroke:none;fill-rule:nonzero;fill:rgb(13.328552%,15.689087%,19.219971%);fill-opacity:1;" d="M 156.046875 233.46875 L 160.886719 233.46875 L 160.886719 209.273438 L 165.726562 209.273438 L 165.726562 204.433594 L 160.886719 204.433594 L 160.886719 199.597656 L 156.046875 199.597656 L 156.046875 204.433594 L 151.210938 204.433594 L 151.210938 209.273438 L 156.046875 209.273438 L 156.046875 233.46875 "/>
<path style=" stroke:none;fill-rule:nonzero;fill:rgb(13.328552%,15.689087%,19.219971%);fill-opacity:1;" d="M 185.082031 218.953125 L 185.082031 214.113281 L 180.242188 214.113281 L 180.242188 199.597656 L 175.402344 199.597656 L 175.402344 214.113281 L 170.566406 214.113281 L 170.566406 218.953125 L 175.402344 218.953125 L 175.402344 233.46875 L 180.242188 233.46875 L 180.242188 218.953125 L 185.082031 218.953125 "/>
<path style=" stroke:none;fill-rule:nonzero;fill:rgb(13.328552%,15.689087%,19.219971%);fill-opacity:1;" d="M 175.402344 252.824219 L 180.242188 252.824219 L 180.242188 247.984375 L 175.402344 247.984375 L 175.402344 252.824219 "/>
<path style=" stroke:none;fill-rule:nonzero;fill:rgb(13.328552%,15.689087%,19.219971%);fill-opacity:1;" d="M 233.46875 228.628906 L 228.628906 228.628906 L 228.628906 233.46875 L 233.46875 233.46875 L 233.46875 228.628906 "/>
<path style=" stroke:none;fill-rule:nonzero;fill:rgb(13.328552%,15.689087%,19.219971%);fill-opacity:1;" d="M 233.46875 247.984375 L 228.628906 247.984375 L 228.628906 252.824219 L 233.46875 252.824219 L 233.46875 247.984375 "/>
<path style=" stroke:none;fill-rule:nonzero;fill:rgb(13.328552%,15.689087%,19.219971%);fill-opacity:1;" d="M 233.46875 238.304688 L 228.628906 238.304688 L 228.628906 243.144531 L 233.46875 243.144531 L 233.46875 238.304688 "/>
</g>
</svg>
